<svg id="Layer_1" height="512" viewBox="0 0 512 512" width="512" xmlns="http://www.w3.org/2000/svg" data-name="Layer 1"><path d="m256 99c87 0 157.54 70.29 157.54 157s-70.54 157-157.54 157-157.54-70.29-157.54-157 70.54-157 157.54-157z" fill="#e75163"/><path d="m266 228.97v100a10 10 0 0 1 -20 0v-100a10 10 0 0 1 20 0z" fill="#eadf53"/><circle cx="256" cy="183.03" fill="#eadf53" r="10"/><path d="m128.46 256c0-81.667 62.576-148.758 142.54-156.287-4.938-.465-9.94-.713-15-.713-87 0-157.54 70.29-157.54 157s70.54 157 157.54 157c5.06 0 10.062-.248 15-.713-79.964-7.529-142.54-74.62-142.54-156.287z" fill="#c64a5f"/><path d="m199.8 142.073a6 6 0 0 1 -2.569-11.425c3.858-1.824 7.844-3.486 11.848-4.938a6 6 0 1 1 4.092 11.281c-3.653 1.325-7.29 2.841-10.81 4.5a5.962 5.962 0 0 1 -2.561.582z" fill="#f4f8fc"/><path d="m123.984 262a6 6 0 0 1 -6-6 138.738 138.738 0 0 1 59.816-114.135 6 6 0 0 1 6.823 9.871 126.737 126.737 0 0 0 -54.639 104.264 6 6 0 0 1 -6 6z" fill="#f4f8fc"/><g fill="#d4e1f4"><path d="m501 262h-37.513a6 6 0 0 1 0-12h37.513a6 6 0 0 1 0 12z"/><path d="m48.513 262h-37.513a6 6 0 0 1 0-12h37.513a6 6 0 0 1 0 12z"/><path d="m487.633 341.823a5.989 5.989 0 0 1 -1.955-.329l-38.4-13.232a6 6 0 0 1 3.909-11.346l38.4 13.232a6 6 0 0 1 -1.954 11.675z"/><path d="m62.767 195.413a5.993 5.993 0 0 1 -1.955-.329l-38.4-13.232a6 6 0 0 1 3.909-11.346l38.4 13.232a6 6 0 0 1 -1.954 11.675z"/><path d="m451.169 201.328a6 6 0 0 1 -1.779-11.728l38.784-12.057a6 6 0 1 1 3.563 11.457l-38.784 12.057a6.021 6.021 0 0 1 -1.784.271z"/><path d="m22.042 334.732a6 6 0 0 1 -1.779-11.732l38.784-12.057a6 6 0 0 1 3.563 11.457l-38.784 12.06a5.988 5.988 0 0 1 -1.784.272z"/></g></svg>