<?xml version="1.0" encoding="UTF-8" standalone="no"?>
<svg
   xmlns:dc="http://purl.org/dc/elements/1.1/"
   xmlns:cc="http://creativecommons.org/ns#"
   xmlns:rdf="http://www.w3.org/1999/02/22-rdf-syntax-ns#"
   xmlns:svg="http://www.w3.org/2000/svg"
   xmlns="http://www.w3.org/2000/svg"
   xmlns:sodipodi="http://sodipodi.sourceforge.net/DTD/sodipodi-0.dtd"
   xmlns:inkscape="http://www.inkscape.org/namespaces/inkscape"
   id="Layer_1"
   enable-background="new 0 0 512 512"
   height="512"
   viewBox="0 0 512 512"
   width="512"
   version="1.1"
   sodipodi:docname="Temperature.svg"
   inkscape:version="1.0.1 (3bc2e813f5, 2020-09-07)">
  <metadata
     id="metadata75">
    <rdf:RDF>
      <cc:Work
         rdf:about="">
        <dc:format>image/svg+xml</dc:format>
        <dc:type
           rdf:resource="http://purl.org/dc/dcmitype/StillImage" />
        <dc:title></dc:title>
      </cc:Work>
    </rdf:RDF>
  </metadata>
  <defs
     id="defs73" />
  <sodipodi:namedview
     pagecolor="#ffffff"
     bordercolor="#666666"
     borderopacity="1"
     objecttolerance="10"
     gridtolerance="10"
     guidetolerance="10"
     inkscape:pageopacity="0"
     inkscape:pageshadow="2"
     inkscape:window-width="1920"
     inkscape:window-height="1020"
     id="namedview71"
     showgrid="false"
     inkscape:zoom="1.6640625"
     inkscape:cx="256"
     inkscape:cy="231.96244"
     inkscape:window-x="0"
     inkscape:window-y="30"
     inkscape:window-maximized="1"
     inkscape:current-layer="Layer_1" />
  <g
     id="g68">
    <g
       id="g16">
      <g
         fill="#90abbd"
         id="g12">
        <path
           d="m219.975 126.222c-4.143 0-7.5 3.358-7.5 7.5v60c0 4.142 3.357 7.5 7.5 7.5s7.5-3.358 7.5-7.5v-60c0-4.142-3.357-7.5-7.5-7.5z"
           id="path2" />
        <path
           d="m279.33 141.222c4.143 0 7.5-3.358 7.5-7.5s-3.357-7.5-7.5-7.5h-30c-4.143 0-7.5 3.358-7.5 7.5v30c0 4.142 3.357 7.5 7.5 7.5h22.5v15h-22.5c-4.143 0-7.5 3.358-7.5 7.5s3.357 7.5 7.5 7.5h30c4.143 0 7.5-3.358 7.5-7.5v-30c0-4.142-3.357-7.5-7.5-7.5h-22.5v-15z"
           id="path4" />
        <path
           d="m361.33 126.222c-4.143 0-7.5 3.358-7.5 7.5v60c0 4.142 3.357 7.5 7.5 7.5s7.5-3.358 7.5-7.5v-60c0-4.142-3.357-7.5-7.5-7.5z"
           id="path6" />
        <path
           d="m420.683 126.222h-30c-4.143 0-7.5 3.358-7.5 7.5v30c0 4.142 3.357 7.5 7.5 7.5h22.5v15h-22.5c-4.143 0-7.5 3.358-7.5 7.5s3.357 7.5 7.5 7.5h30c4.143 0 7.5-3.358 7.5-7.5v-60c0-4.142-3.357-7.5-7.5-7.5zm-22.5 30v-15h15v15z"
           id="path8" />
        <path
           d="m331.418 156.222h-22.088c-4.143 0-7.5 3.358-7.5 7.5s3.357 7.5 7.5 7.5h22.088c4.143 0 7.5-3.358 7.5-7.5s-3.358-7.5-7.5-7.5z"
           id="path10" />
      </g>
      <path
         d="m470.33 146.222h-12.5v-25h12.5c4.143 0 7.5-3.358 7.5-7.5s-3.357-7.5-7.5-7.5h-20c-4.143 0-7.5 3.358-7.5 7.5v40c0 4.142 3.357 7.5 7.5 7.5h20c4.143 0 7.5-3.358 7.5-7.5s-3.357-7.5-7.5-7.5z"
         fill="#ed2061"
         id="path14" />
    </g>
    <g
       id="g66">
      <path
         d="m216.72 420.72c0 50.33-40.94 91.28-91.27 91.28-5.21 0-10.31-.44-15.28-1.29-43.09-7.28-76-44.87-76-89.99 0-27.42 12.56-53.64 33.78-70.89v-292.33c0-26.42 17.9-48.73 42.21-55.43 4.87-1.35 10-2.07 15.29-2.07 31.7 0 57.5 25.79 57.5 57.5v292.33c21.21 17.26 33.77 43.47 33.77 70.89z"
         fill="#eef0f5"
         id="path18" />
      <path
         d="m216.72 420.72c0 50.33-40.94 91.28-91.27 91.28-5.21 0-10.31-.44-15.28-1.29 43.08-7.29 75.99-44.87 75.99-89.99 0 0-12.56-25.54-33.78-42.79v-320.43c0-26.42-17.9-48.73-42.22-55.43 4.87-1.35 10-2.07 15.29-2.07 31.7 0 57.5 25.79 57.5 57.5v292.33c21.21 17.26 33.77 43.47 33.77 70.89z"
         fill="#dae1ea"
         id="path20" />
      <path
         d="m152.95 58.94v100c0 4.14-3.36 7.5-7.5 7.5h-40c-4.15 0-7.5-3.36-7.5-7.5v-100c0-10.05 5.42-18.86 13.49-23.66 4.1-2.44 8.9-3.84 14.01-3.84 15.16 0 27.5 12.33 27.5 27.5z"
         fill="#b9cfdf"
         id="path22" />
      <path
         d="m152.95 58.94v100c0 4.14-3.36 7.5-7.5 7.5h-28c4.14 0 7.5-3.36 7.5-7.5v-100c0-10.06-5.43-18.88-13.51-23.66 4.1-2.44 8.9-3.84 14.01-3.84 15.16 0 27.5 12.33 27.5 27.5z"
         fill="#90abbd"
         id="path24" />
      <path
         d="m185.92 421.23c0 33.35-27.13 60.48-60.47 60.48-4.82 0-9.5-.57-14-1.64-26.62-6.32-46.48-30.31-46.48-58.84 0-22.97 12.78-43.6 32.98-53.88v-208.41c0-10.06 5.42-18.87 13.5-23.66 4.1-2.44 8.89-3.84 14-3.84 15.16 0 27.5 12.33 27.5 27.5v208.41c20.19 10.28 32.97 30.91 32.97 53.88z"
         fill="#ed2061"
         id="path26" />
      <path
         d="m185.92 421.23c0 33.35-27.13 60.48-60.47 60.48-4.82 0-9.5-.57-14-1.64 26.61-6.33 46.47-30.31 46.47-58.84 0-22.97-12.78-43.6-32.97-53.88v-208.41c0-10.06-5.42-18.87-13.5-23.66 4.1-2.44 8.89-3.84 14-3.84 15.16 0 27.5 12.33 27.5 27.5v208.41c20.19 10.28 32.97 30.91 32.97 53.88z"
         fill="#c71e54"
         id="path28" />
      <g
         fill="#b9cfdf"
         id="g42">
        <path
           d="m280.152 90h-60.177c-4.143 0-7.5 3.358-7.5 7.5s3.357 7.5 7.5 7.5h60.177c4.143 0 7.5-3.358 7.5-7.5s-3.357-7.5-7.5-7.5z"
           id="path30" />
        <path
           d="m219.975 75h30.177c4.143 0 7.5-3.358 7.5-7.5s-3.357-7.5-7.5-7.5h-30.177c-4.143 0-7.5 3.358-7.5 7.5s3.358 7.5 7.5 7.5z"
           id="path32" />
        <path
           d="m219.975 45h60.177c4.143 0 7.5-3.358 7.5-7.5s-3.357-7.5-7.5-7.5h-60.177c-4.143 0-7.5 3.358-7.5 7.5s3.358 7.5 7.5 7.5z"
           id="path34" />
        <path
           d="m219.975 15h30.177c4.143 0 7.5-3.358 7.5-7.5s-3.357-7.5-7.5-7.5h-30.177c-4.143 0-7.5 3.358-7.5 7.5s3.358 7.5 7.5 7.5z"
           id="path36" />
        <path
           d="m280.152 246.435h-60.177c-4.143 0-7.5 3.358-7.5 7.5s3.357 7.5 7.5 7.5h60.177c4.143 0 7.5-3.358 7.5-7.5s-3.357-7.5-7.5-7.5z"
           id="path38" />
        <path
           d="m219.975 231.435h30.177c4.143 0 7.5-3.358 7.5-7.5s-3.357-7.5-7.5-7.5h-30.177c-4.143 0-7.5 3.358-7.5 7.5s3.358 7.5 7.5 7.5z"
           id="path40" />
      </g>
      <g
         id="g64">
        <path
           d="m414.493 349.013h-21.53c-4.142 0-7.5 3.358-7.5 7.5s3.358 7.5 7.5 7.5h21.53c3.35 0 6.075 2.725 6.075 6.074v58.845c0 3.349-2.725 6.074-6.075 6.074h-21.53c-4.142 0-7.5 3.358-7.5 7.5s3.358 7.5 7.5 7.5h21.53c11.621 0 21.075-9.454 21.075-21.074v-58.845c0-11.62-9.454-21.074-21.075-21.074z"
           fill="#b9cfdf"
           id="path44" />
        <path
           d="m415.439 489.5c0 12.39-10.08 22.48-22.46 22.5h-140.07c-12.4-.02-22.47-10.11-22.47-22.5 0-9.76 6.25-18.09 14.97-21.2v-182.311c0-4.14 3.36-7.5 7.5-7.5h140.05c4.15 0 7.5 3.36 7.5 7.5v182.311c8.72 3.11 14.98 11.44 14.98 21.2z"
           fill="#eef0f5"
           id="path46" />
        <path
           d="m415.439 489.5c0 12.39-10.08 22.48-22.46 22.5h-30c12.38-.02 22.46-10.11 22.46-22.5 0-7.09-3.32-13.44-8.47-17.57-4.1-3.28-6.51-8.23-6.51-13.48v-172.46c0-4.14-3.35-7.5-7.5-7.5h30c4.15 0 7.5 3.36 7.5 7.5v182.31c8.72 3.11 14.98 11.44 14.98 21.2z"
           fill="#dae1ea"
           id="path48" />
        <path
           d="m370.439 346.51v114c0 4.14-3.36 7.5-7.5 7.5h-80c-4.15 0-7.5-3.36-7.5-7.5v-114c0-4.14 3.35-7.5 7.5-7.5h80c4.14-.001 7.5 3.36 7.5 7.5z"
           fill="#d77d41"
           id="path50" />
        <path
           d="m370.439 346.51v114c0 4.14-3.36 7.5-7.5 7.5h-30c4.14 0 7.5-3.36 7.5-7.5v-114c0-4.14-3.36-7.5-7.5-7.5h30c4.14-.001 7.5 3.36 7.5 7.5z"
           fill="#b5612a"
           id="path52" />
        <g
           fill="#b9cfdf"
           id="g60">
          <path
             d="m282.935 295.205c-4.142 0-7.5 3.358-7.5 7.5v10.966c0 4.142 3.358 7.5 7.5 7.5s7.5-3.358 7.5-7.5v-10.966c0-4.142-3.358-7.5-7.5-7.5z"
             id="path54" />
          <path
             d="m362.935 295.205c-4.142 0-7.5 3.358-7.5 7.5v10.966c0 4.142 3.358 7.5 7.5 7.5s7.5-3.358 7.5-7.5v-10.966c0-4.142-3.358-7.5-7.5-7.5z"
             id="path56" />
          <path
             d="m322.935 295.205c-4.142 0-7.5 3.358-7.5 7.5v10.966c0 4.142 3.358 7.5 7.5 7.5s7.5-3.358 7.5-7.5v-10.966c0-4.142-3.358-7.5-7.5-7.5z"
             id="path58" />
        </g>
        <circle
           cx="317.938"
           cy="443.508"
           fill="#fab684"
           r="7.5"
           id="circle62" />
      </g>
    </g>
  </g>
  <rect
     style="fill:#ffffff;stroke-width:1.01565"
     id="rect77"
     width="303.58688"
     height="269.32898"
     x="201.4536"
     y="0.074396759" />
</svg>
